<svg xmlns="http://www.w3.org/2000/svg" width="130" height="31" fill="none">
  <g clip-path="url(#a)">
    <path fill="#00486D" d="M1 22.55v-.707l.642-.193c.407-.128.686-.332.836-.61.15-.3.224-.685.224-1.157v-15.9c0-.428-.053-.77-.16-1.028-.107-.278-.375-.492-.803-.642L1 2.023v-.706h6.135l6.04 15.707L18.86 1.317h6.264v.707l-.514.16c-.407.129-.686.332-.836.61-.15.258-.225.6-.225 1.028a216.29 216.29 0 0 0-.032 3.727v8.769c0 1.242.011 2.473.032 3.694 0 .45.054.792.161 1.028.107.235.364.428.771.578l.642.225v.706h-7.805v-.706l.706-.225c.407-.15.654-.343.74-.578.106-.257.16-.6.16-1.028v-6.97l.064-8.61-6.553 18.117h-1.799L3.73 4.627l.129 7.323v7.967c0 .47.064.845.193 1.124.128.278.396.47.803.578l.642.225v.706H1Zm32.589.45c-1.457 0-2.774-.311-3.951-.932-1.178-.643-2.11-1.564-2.795-2.763-.664-1.22-.996-2.698-.996-4.433 0-1.734.375-3.212 1.124-4.432a7.493 7.493 0 0 1 2.988-2.795c1.263-.664 2.644-.996 4.143-.996 1.221 0 2.26.204 3.116.61.857.407 1.51.932 1.96 1.575.45.62.674 1.284.674 1.991 0 .6-.182 1.06-.546 1.381-.342.322-.792.482-1.349.482-.6 0-1.092-.214-1.477-.642-.364-.429-.579-.975-.643-1.639a9.224 9.224 0 0 1 0-1.092c.043-.3.043-.589 0-.867-.086-.364-.236-.61-.45-.739-.192-.128-.47-.192-.835-.192-1.349 0-2.388.546-3.116 1.638-.706 1.07-1.06 2.816-1.06 5.236 0 2.077.396 3.672 1.189 4.786.792 1.113 2.024 1.67 3.694 1.67.985 0 1.799-.182 2.441-.546.643-.385 1.231-.932 1.767-1.638l.514.385c-.536 1.285-1.36 2.27-2.474 2.955-1.092.664-2.398.996-3.918.996Zm7.345-.45v-.675l.675-.193c.428-.128.706-.321.835-.578.128-.257.193-.6.193-1.028V3.823c0-.45-.075-.793-.225-1.028-.129-.257-.407-.45-.835-.579l-.643-.224v-.675h7.806v.675l-.675.224c-.407.107-.674.29-.803.546-.128.257-.193.61-.193 1.06v16.286c0 .428.075.771.225 1.028.15.236.429.418.836.546l.61.193v.674h-7.806Zm11.693 0v-.675l.385-.096c.407-.107.621-.31.642-.61.022-.3-.117-.643-.417-1.029l-6.135-8.512 7.837-7.966c.322-.321.493-.61.514-.867.043-.279-.15-.493-.578-.643l-.546-.16v-.675h5.075v.675l-.835.224c-.492.15-.889.332-1.189.546-.3.193-.642.493-1.027.9l-5.718 5.814 7.356 10.504c.343.47.664.846.964 1.124.32.278.749.493 1.284.643l.45.128v.674h-8.063ZM65.424 4.882c-.707 0-1.306-.225-1.799-.675-.492-.45-.739-1.017-.739-1.703 0-.706.247-1.274.74-1.702.492-.45 1.091-.675 1.798-.675.707 0 1.306.225 1.799.675.492.428.739.996.739 1.703 0 .685-.247 1.252-.74 1.702-.492.45-1.091.675-1.798.675Zm-3.694 17.666v-.61l.482-.128c.428-.129.717-.322.867-.578.15-.258.236-.6.257-1.028v-7.742c0-.578-.01-1.167-.032-1.766 0-.429-.086-.76-.257-.996-.15-.257-.439-.428-.867-.514l-.45-.097v-.578l5.621-1.863.386.354-.097 4.56v8.674c0 .428.075.77.225 1.028.172.257.46.45.868.578l.353.096v.61H61.73Zm8.783 0v-.61l.514-.128c.706-.214 1.06-.74 1.06-1.574V10.76c-.022-.45-.097-.792-.225-1.028-.129-.257-.407-.428-.835-.514l-.514-.129v-.578l5.203-1.863.386.354.225 1.991a10.197 10.197 0 0 1 2.57-1.67c.963-.45 1.905-.675 2.826-.675 1.413 0 2.495.386 3.244 1.157.771.77 1.157 1.948 1.157 3.533v8.93c0 .835.385 1.36 1.156 1.574l.353.096v.61h-7.388v-.61l.482-.128c.707-.236 1.06-.76 1.06-1.574v-9.54c0-.75-.16-1.296-.481-1.639-.322-.342-.857-.514-1.607-.514-1.049 0-2.141.46-3.276 1.382v10.343c0 .835.375 1.36 1.124 1.574l.322.096v.61h-7.356Zm18.509 0v-.61l.482-.128c.706-.236 1.06-.771 1.06-1.606V18.02c.021-.75.032-1.488.032-2.216V3.598c0-.45-.075-.782-.225-.996-.15-.236-.44-.407-.867-.514l-.482-.129v-.61L94.644 0l.418.29-.129 4.528v15.387c.022.428.107.781.257 1.06.172.257.46.439.868.546l.45.128v.61h-7.485Zm16.969-15.9c1.349 0 2.505.279 3.469.835a5.628 5.628 0 0 1 2.216 2.313c.535.964.803 2.077.803 3.34 0 .28-.011.547-.032.804-.021.235-.064.46-.128.674h-9.669c.021 2.206.428 3.79 1.22 4.754.814.964 1.992 1.446 3.534 1.446 1.071 0 1.938-.171 2.602-.514.664-.364 1.274-.867 1.831-1.51l.514.482c-.643 1.178-1.521 2.099-2.634 2.763-1.093.642-2.399.963-3.919.963-1.521 0-2.859-.321-4.015-.963-1.157-.643-2.067-1.564-2.73-2.763-.643-1.22-.964-2.677-.964-4.368 0-1.756.375-3.245 1.124-4.465.771-1.221 1.756-2.153 2.955-2.795 1.221-.664 2.495-.996 3.823-.996Zm-.161.932c-.621 0-1.167.182-1.638.546-.45.342-.814.963-1.092 1.863-.257.878-.407 2.12-.45 3.726h5.75c.235-2.163.15-3.726-.257-4.69-.407-.963-1.178-1.445-2.313-1.445Zm10.955 22.71c-.857 0-1.531-.204-2.024-.61-.492-.407-.739-.943-.739-1.607 0-.6.204-1.081.611-1.445a2.21 2.21 0 0 1 1.413-.514c.536 0 .975.096 1.317.29.343.192.643.47.9.834l.192.257c.493.6.953.59 1.382-.032a7.76 7.76 0 0 0 .803-1.349c.278-.535.578-1.242.899-2.12l-6.103-14.583c-.15-.407-.321-.718-.514-.932-.193-.235-.482-.428-.867-.578l-.546-.193v-.578h7.934v.578l-.675.193c-.471.15-.728.385-.771.707-.021.3.054.696.225 1.188l3.276 8.544 3.148-8.608c.172-.471.236-.867.193-1.189-.043-.32-.31-.535-.803-.642l-.707-.193v-.578h4.787v.578l-.707.225c-.471.129-.814.321-1.028.578-.193.236-.375.59-.546 1.06l-5.14 13.813c-.856 2.355-1.734 4.09-2.634 5.203-.878 1.135-1.97 1.703-3.276 1.703Z"/>
  </g>
  <defs>
    <clipPath id="a">
      <path fill="#fff" d="M0 0h130v31H0z"/>
    </clipPath>
  </defs>
</svg>
