<svg xmlns="http://www.w3.org/2000/svg" aria-hidden="true" style="position:absolute;width:0;height:0;overflow:hidden">
  <defs>
    <symbol id="icon-arrow-subscr-btn" viewBox="0 0 32 32">
      <path stroke-linecap="round" stroke-linejoin="round" stroke-width=".8" d="m21.317 2.461 9.527 13.925-9.527 13.925"/>
      <path stroke-linecap="round" stroke-width=".8" d="M30.266 16.386H1.684"/>
    </symbol>
    <symbol id="icon-arrow-slide" viewBox="0 0 12 32">
      <path stroke-linecap="round" stroke-linejoin="round" stroke-width="1.28" d="M10.642 1.518.804 16l9.838 14.482"/>
    </symbol>
    <symbol id="icon-arrow-big-slide" viewBox="0 0 7 32">
      <path stroke-linecap="round" stroke-linejoin="round" stroke-width="1.224" d="M.525.612 6.47 16 .525 31.388"/>
    </symbol>
    <symbol id="icon-arrow" viewBox="0 0 43 32">
      <path stroke-linecap="round" stroke-linejoin="round" stroke-width="2.286" d="M28.93 3.07 41.86 16 28.93 28.93"/>
      <path stroke-linecap="round" stroke-width="2.286" d="M41.076 16H2.286"/>
    </symbol>
    <symbol id="icon-dotes" viewBox="0 0 32 32">
      <path d="M1.231 2.462a1.23 1.23 0 1 0 0-2.462 1.23 1.23 0 0 0 0 2.462zM6.154 2.462a1.23 1.23 0 1 0 0-2.462 1.23 1.23 0 0 0 0 2.462zM11.077 2.462a1.23 1.23 0 1 0 0-2.462 1.23 1.23 0 0 0 0 2.462zM16 2.462A1.23 1.23 0 1 0 16 0a1.23 1.23 0 0 0 0 2.462zM20.923 2.462a1.23 1.23 0 1 0 0-2.462 1.23 1.23 0 0 0 0 2.462zM25.846 2.462a1.23 1.23 0 1 0 0-2.462 1.23 1.23 0 0 0 0 2.462zM30.769 2.462a1.23 1.23 0 1 0 0-2.462 1.23 1.23 0 0 0 0 2.462zM1.231 7.385a1.23 1.23 0 1 0 0-2.462 1.23 1.23 0 0 0 0 2.462zM6.154 7.385a1.23 1.23 0 1 0 0-2.462 1.23 1.23 0 0 0 0 2.462zM11.077 7.385a1.23 1.23 0 1 0 0-2.462 1.23 1.23 0 0 0 0 2.462zM16 7.385a1.23 1.23 0 1 0 0-2.462 1.23 1.23 0 0 0 0 2.462zM20.923 7.385a1.23 1.23 0 1 0 0-2.462 1.23 1.23 0 0 0 0 2.462zM25.846 7.385a1.23 1.23 0 1 0 0-2.462 1.23 1.23 0 0 0 0 2.462zM30.769 7.385a1.23 1.23 0 1 0 0-2.462 1.23 1.23 0 0 0 0 2.462zM1.231 12.308a1.23 1.23 0 1 0 0-2.462 1.23 1.23 0 0 0 0 2.462zM6.154 12.308a1.23 1.23 0 1 0 0-2.462 1.23 1.23 0 0 0 0 2.462zM11.077 12.308a1.23 1.23 0 1 0 0-2.462 1.23 1.23 0 0 0 0 2.462zM16 12.308a1.23 1.23 0 1 0 0-2.462 1.23 1.23 0 0 0 0 2.462zM20.923 12.308a1.23 1.23 0 1 0 0-2.462 1.23 1.23 0 0 0 0 2.462zM25.846 12.308a1.23 1.23 0 1 0 0-2.462 1.23 1.23 0 0 0 0 2.462zM30.769 12.308a1.23 1.23 0 1 0 0-2.462 1.23 1.23 0 0 0 0 2.462zM1.231 17.231a1.23 1.23 0 1 0 0-2.462 1.23 1.23 0 0 0 0 2.462zM6.154 17.231a1.23 1.23 0 1 0 0-2.462 1.23 1.23 0 0 0 0 2.462zM11.077 17.231a1.23 1.23 0 1 0 0-2.462 1.23 1.23 0 0 0 0 2.462zM16 17.231a1.23 1.23 0 1 0 0-2.462 1.23 1.23 0 0 0 0 2.462zM20.923 17.231a1.23 1.23 0 1 0 0-2.462 1.23 1.23 0 0 0 0 2.462zM25.846 17.231a1.23 1.23 0 1 0 0-2.462 1.23 1.23 0 0 0 0 2.462zM30.769 17.231a1.23 1.23 0 1 0 0-2.462 1.23 1.23 0 0 0 0 2.462zM1.231 22.154a1.23 1.23 0 1 0 0-2.462 1.23 1.23 0 0 0 0 2.462zM6.154 22.154a1.23 1.23 0 1 0 0-2.462 1.23 1.23 0 0 0 0 2.462zM11.077 22.154a1.23 1.23 0 1 0 0-2.462 1.23 1.23 0 0 0 0 2.462zM16 22.154a1.23 1.23 0 1 0 0-2.462 1.23 1.23 0 0 0 0 2.462zM20.923 22.154a1.23 1.23 0 1 0 0-2.462 1.23 1.23 0 0 0 0 2.462zM25.846 22.154a1.23 1.23 0 1 0 0-2.462 1.23 1.23 0 0 0 0 2.462zM30.769 22.154a1.23 1.23 0 1 0 0-2.462 1.23 1.23 0 0 0 0 2.462zM1.231 27.077a1.23 1.23 0 1 0 0-2.462 1.23 1.23 0 0 0 0 2.462zM6.154 27.077a1.23 1.23 0 1 0 0-2.462 1.23 1.23 0 0 0 0 2.462zM11.077 27.077a1.23 1.23 0 1 0 0-2.462 1.23 1.23 0 0 0 0 2.462zM16 27.077a1.23 1.23 0 1 0 0-2.462 1.23 1.23 0 0 0 0 2.462zM20.923 27.077a1.23 1.23 0 1 0 0-2.462 1.23 1.23 0 0 0 0 2.462zM25.846 27.077a1.23 1.23 0 1 0 0-2.462 1.23 1.23 0 0 0 0 2.462zM30.769 27.077a1.23 1.23 0 1 0 0-2.462 1.23 1.23 0 0 0 0 2.462zM1.231 32a1.23 1.23 0 1 0 0-2.462 1.23 1.23 0 0 0 0 2.462zM6.154 32a1.23 1.23 0 1 0 0-2.462 1.23 1.23 0 0 0 0 2.462zM11.077 32a1.23 1.23 0 1 0 0-2.462 1.23 1.23 0 0 0 0 2.462zM16 32a1.23 1.23 0 1 0 0-2.462A1.23 1.23 0 0 0 16 32zM20.923 32a1.23 1.23 0 1 0 0-2.462 1.23 1.23 0 0 0 0 2.462zM25.846 32a1.23 1.23 0 1 0 0-2.462 1.23 1.23 0 0 0 0 2.462zM30.769 32a1.23 1.23 0 1 0 0-2.462 1.23 1.23 0 0 0 0 2.462z"/>
    </symbol>
    <symbol id="icon-linked" viewBox="0 0 32 32">
      <path d="M0 16C0 7.163 7.163 0 16 0s16 7.163 16 16-7.163 16-16 16S0 24.837 0 16zm11.307-2.748H7.681v10.894h3.626V13.251zm.239-3.37C11.522 8.814 10.759 8 9.518 8s-2.051.814-2.051 1.882c0 1.046.787 1.883 2.004 1.883h.023c1.264 0 2.052-.837 2.052-1.883zM24.384 17.9c0-3.346-1.789-4.904-4.175-4.904-1.925 0-2.787 1.057-3.268 1.799v-1.543h-3.626c.048 1.022 0 10.894 0 10.894h3.626v-6.084c0-.326.023-.65.119-.884.262-.651.859-1.324 1.86-1.324 1.313 0 1.837.999 1.837 2.463v5.829h3.626v-6.247z"/>
    </symbol>
    <symbol id="icon-facebook" viewBox="0 0 32 32">
      <path d="M0 16C0 7.163 7.163 0 16 0s16 7.163 16 16-7.163 16-16 16S0 24.837 0 16zm17.668 9.408v-8.705h2.403l.319-3h-2.721l.004-1.501c0-.782.074-1.202 1.198-1.202h1.502V8H17.97c-2.887 0-3.903 1.455-3.903 3.902v1.801h-1.799v3h1.799v8.705h3.602z"/>
    </symbol>
    <symbol id="icon-twitter" viewBox="0 0 32 32">
      <path d="M0 16C0 7.163 7.163 0 16 0s16 7.163 16 16-7.163 16-16 16S0 24.837 0 16zm15.521-2.995.034.554-.56-.068c-2.037-.26-3.816-1.141-5.327-2.621l-.739-.734-.19.542c-.403 1.209-.146 2.486.694 3.344.448.475.347.542-.425.26-.269-.09-.504-.158-.526-.124-.078.079.19 1.107.403 1.514.291.565.884 1.119 1.533 1.446l.548.26-.649.011c-.627 0-.649.011-.582.249.224.734 1.108 1.514 2.093 1.853l.694.237-.604.362a6.289 6.289 0 0 1-2.999.836c-.504.011-.918.056-.918.09 0 .113 1.365.746 2.16.994 2.384.734 5.215.418 7.342-.836 1.511-.893 3.022-2.666 3.727-4.384.381-.915.761-2.587.761-3.39 0-.52.034-.588.66-1.209.369-.362.716-.757.783-.87.112-.215.101-.215-.47-.023-.951.339-1.086.294-.616-.215.347-.361.761-1.017.761-1.209 0-.034-.168.023-.358.124-.201.113-.649.282-.985.384l-.604.192-.548-.373c-.302-.203-.727-.429-.951-.497-.571-.158-1.444-.136-1.959.045-1.399.508-2.283 1.819-2.182 3.254z"/>
    </symbol>
    <symbol id="icon-internet" viewBox="0 0 32 32">
      <path d="M14.909 0C7.788 0 1.779 4.847 0 11.415h1.401a14.098 14.098 0 0 1 2.366-4.577c1.146.645 2.473 1.186 3.942 1.6a24.812 24.812 0 0 0-.59 2.977h1.369c.136-.923.323-1.805.543-2.644 1.618.357 3.368.569 5.207.609v2.035h1.343V9.38a26.649 26.649 0 0 0 5.207-.609c.22.839.407 1.721.543 2.644H22.7a25.21 25.21 0 0 0-.59-2.977c1.469-.414 2.796-.955 3.942-1.6a14.033 14.033 0 0 1 2.363 4.577h1.403C28.04 4.847 22.03 0 14.909 0zm-.672 1.424v6.612a25.529 25.529 0 0 1-4.826-.561c1.104-3.302 2.854-5.616 4.826-6.051zm1.343 0c1.972.435 3.722 2.749 4.826 6.051a25.538 25.538 0 0 1-4.826.561V1.424zm-4.611.491c-1.183 1.249-2.172 3.048-2.885 5.23-1.283-.362-2.442-.821-3.433-1.353a14.13 14.13 0 0 1 6.319-3.877zm7.88 0a14.13 14.13 0 0 1 6.319 3.877c-.991.532-2.151.991-3.433 1.353-.713-2.182-1.702-3.982-2.885-5.23zM.136 12.758l1.705 5.372h1.563l1.422-4.016 1.422 4.016h1.529l1.736-5.372H8.06l-1.096 3.753-1.254-3.753H3.997l-1.306 3.691-1.078-3.691H.136zm10.083 0 1.708 5.372h1.566l1.416-4.016 1.424 4.016h1.529l1.736-5.372h-1.456l-1.094 3.753-1.254-3.753h-1.715l-1.306 3.691-1.075-3.691h-1.479zm10.051 0 1.71 5.372h1.571l1.424-4.016 1.43 4.016h1.534l1.742-5.372h-1.458l-1.102 3.753-1.256-3.753h-1.721l-1.311 3.691-1.083-3.691h-1.479zm4.711 6.043c-3.693 0-6.715 3.022-6.715 6.715s3.022 6.715 6.715 6.715 6.715-3.022 6.715-6.715-3.022-6.715-6.715-6.715zM0 19.473c1.778 6.568 7.788 11.415 14.909 11.415 1.277 0 2.515-.163 3.704-.454a8.149 8.149 0 0 1-.609-.921 7.863 7.863 0 0 1-.527-1.089c-.598.538-1.235.897-1.896 1.047v-6.623c.595.018 1.188.05 1.771.1.152-.449.336-.887.561-1.296a28.284 28.284 0 0 0-2.332-.144v-2.035h-1.343v2.035a27.111 27.111 0 0 0-5.204.611 23.929 23.929 0 0 1-.546-2.647H7.119a25.55 25.55 0 0 0 .59 2.98c-1.456.412-2.788.947-3.942 1.597a14.098 14.098 0 0 1-2.366-4.577H0zm24.981.671c2.953 0 5.372 2.418 5.372 5.372s-2.418 5.372-5.372 5.372c-2.953 0-5.372-2.418-5.372-5.372s2.418-5.372 5.372-5.372zm0 2.015c-1.477 0-2.014 1.209-2.014 2.014h1.343c0-.336.134-.671.671-.671.336 0 .671.134.671.671 0 .068-.202.336-.336.47-.404.47-1.007 1.209-1.007 2.216h1.343c0-.538.336-.939.671-1.343s.671-.805.671-1.343c0-1.477-1.209-2.014-2.014-2.014zm-10.744.692v6.612c-1.972-.435-3.725-2.749-4.826-6.056a25.978 25.978 0 0 1 4.826-.556zm-6.153.887c.713 2.185 1.702 3.987 2.885 5.233a14.095 14.095 0 0 1-6.321-3.877c1.015-.546 2.174-.999 3.436-1.356zm16.225 3.792v1.343h1.343V27.53h-1.343z"/>
    </symbol>
    <symbol id="icon-building" viewBox="0 0 25 32">
      <path d="M1.92 0A1.93 1.93 0 0 0 0 1.92V32h24.32V1.92A1.93 1.93 0 0 0 22.4 0H1.92zm0 1.28H22.4c.355 0 .64.285.64.64v28.8h-2.56v-7.68h-7.04v7.68H1.28V1.92c0-.355.285-.64.64-.64zm1.92 2.56v5.12h7.04V3.84H3.84zm9.6 0v5.12h7.04V3.84h-7.04zM5.12 5.12H9.6v2.56H5.12V5.12zm9.6 0h4.48v2.56h-4.48V5.12zM3.84 10.24v5.12h7.04v-5.12H3.84zm9.6 0v5.12h7.04v-5.12h-7.04zm-8.32 1.28H9.6v2.56H5.12v-2.56zm9.6 0h4.48v2.56h-4.48v-2.56zM3.84 16.64v5.12h7.04v-5.12H3.84zm9.6 0v5.12h7.04v-5.12h-7.04zm-8.32 1.28H9.6v2.56H5.12v-2.56zm9.6 0h4.48v2.56h-4.48v-2.56zM3.84 23.04v5.12h7.04v-5.12H3.84zm1.28 1.28H9.6v2.56H5.12v-2.56zm9.6 0h4.48v6.4h-4.48v-6.4z"/>
    </symbol>
    <symbol id="icon-checkbill" viewBox="0 0 41 32">
      <path d="M12.288 0C7.224 0 3.733 1.723 3.733 1.723a.822.822 0 0 0-.456.734v2.458h-.819A2.47 2.47 0 0 0 0 7.373v21.299a2.47 2.47 0 0 0 2.458 2.458h16.203c.45.499 1.094.819 1.819.819s1.369-.32 1.819-.819h16.203a2.47 2.47 0 0 0 2.458-2.458V7.373a2.47 2.47 0 0 0-2.458-2.458h-.819V2.457a.824.824 0 0 0-.456-.734S33.736 0 28.672 0c-4.327 0-7.358 1.2-8.192 1.566C19.646 1.2 16.615 0 12.288 0zm0 1.638c4.2 0 6.796 1.126 7.373 1.389v23.661c-1.214-.485-3.553-1.293-7.373-1.293s-6.159.807-7.373 1.293V5.872a.798.798 0 0 0 0-.267V3.027c.577-.263 3.173-1.389 7.373-1.389zm16.384 0c4.2 0 6.796 1.126 7.373 1.389v2.57a.798.798 0 0 0 0 .267v20.824c-1.214-.485-3.553-1.293-7.373-1.293s-6.159.807-7.373 1.293V3.027c.577-.263 3.173-1.389 7.373-1.389zm-.819 3.277v1.709c-1.404.227-2.319 1.012-2.762 1.797-.525.929-.515 1.854-.515 1.854 0 1.164.585 2.092 1.326 2.696s1.62.975 2.438 1.338c.818.362 1.574.715 2.061 1.118s.728.769.728 1.469c0 0-.007.48-.294.965s-.755.981-2.163.981c-1.365 0-1.822-.562-2.134-1.186s-.323-1.272-.323-1.272h-1.638s-.011.99.496 2.005c.43.86 1.349 1.757 2.781 2.013v1.717h1.638v-1.706c1.394-.216 2.303-.96 2.752-1.717.532-.897.525-1.8.525-1.8 0-1.177-.578-2.117-1.32-2.731s-1.625-.99-2.445-1.354-1.58-.714-2.067-1.11c-.487-.397-.722-.747-.722-1.426 0 0 .009-.528.304-1.05s.757-1.034 2.154-1.034c1.365 0 1.822.562 2.134 1.186s.323 1.272.323 1.272h1.638s.011-.99-.496-2.005c-.43-.86-1.349-1.757-2.781-2.013V4.914h-1.638zM2.458 6.554h.819v21.299a.819.819 0 0 0 1.186.733s3.094-1.552 7.826-1.552 7.826 1.552 7.826 1.552a.867.867 0 0 0 .134.051l.019.006a.825.825 0 0 0 .238.029h.005a.758.758 0 0 0 .156-.021l.006-.002.008-.002a.87.87 0 0 0 .166-.062s3.094-1.552 7.826-1.552 7.826 1.552 7.826 1.552a.813.813 0 0 0 1.082-.334.819.819 0 0 0 .104-.399V6.553h.819c.463 0 .819.356.819.819v21.299a.806.806 0 0 1-.819.819H2.459a.806.806 0 0 1-.819-.819V7.372c0-.463.356-.819.819-.819z"/>
    </symbol>
    <symbol id="icon-menu-btn" viewBox="0 0 32 32">
      <path d="M4.8 8a1.6 1.6 0 0 1 1.6-1.6h19.2a1.6 1.6 0 1 1 0 3.2H6.4A1.6 1.6 0 0 1 4.8 8zm0 8a1.6 1.6 0 0 1 1.6-1.6h19.2a1.6 1.6 0 1 1 0 3.2H6.4A1.6 1.6 0 0 1 4.8 16zm0 8a1.6 1.6 0 0 1 1.6-1.6h19.2a1.6 1.6 0 1 1 0 3.2H6.4A1.6 1.6 0 0 1 4.8 24z"/>
    </symbol>
    <symbol id="icon-logo" viewBox="0 0 134 32">
      <path d="M1.032 23.277v-0.73l0.663-0.199c0.42-0.132 0.708-0.343 0.863-0.63 0.155-0.31 0.231-0.707 0.231-1.194v-16.413c0-0.442-0.055-0.795-0.165-1.061-0.11-0.287-0.387-0.508-0.829-0.663l-0.763-0.299v-0.729h6.333l6.235 16.214 5.868-16.214h6.466v0.73l-0.531 0.165c-0.42 0.133-0.708 0.343-0.863 0.63-0.155 0.266-0.232 0.619-0.232 1.061-0.021 1.143-0.033 2.49-0.033 3.84 0 0.002 0 0.005 0 0.007v-0 9.052c0 1.282 0.011 2.553 0.033 3.813 0 0.465 0.056 0.818 0.166 1.061s0.376 0.442 0.796 0.597l0.663 0.232v0.729h-8.057v-0.729l0.729-0.232c0.42-0.155 0.675-0.354 0.764-0.597 0.109-0.265 0.165-0.619 0.165-1.061v-7.195l0.066-8.888-6.764 18.701h-1.857l-7.129-18.5 0.133 7.559v8.224c0 0.485 0.066 0.872 0.199 1.16 0.132 0.287 0.409 0.485 0.829 0.597l0.663 0.232v0.729h-4.642zM34.673 23.742c-1.504 0-2.863-0.321-4.078-0.962-1.216-0.664-2.178-1.614-2.885-2.852-0.685-1.259-1.028-2.785-1.028-4.576 0-1.79 0.387-3.316 1.16-4.575 0.75-1.23 1.796-2.212 3.042-2.865l0.043-0.020c1.304-0.685 2.729-1.028 4.277-1.028 1.26 0 2.333 0.211 3.217 0.63 0.885 0.42 1.559 0.962 2.023 1.626 0.465 0.64 0.696 1.325 0.696 2.055 0 0.619-0.188 1.094-0.564 1.426-0.353 0.332-0.818 0.498-1.393 0.498-0.619 0-1.127-0.221-1.525-0.663-0.376-0.443-0.598-1.006-0.664-1.692-0.011-0.168-0.017-0.365-0.017-0.564s0.006-0.395 0.018-0.59l-0.001 0.027c0.044-0.31 0.044-0.608 0-0.895-0.089-0.376-0.244-0.63-0.465-0.763-0.198-0.132-0.485-0.198-0.862-0.198-1.393 0-2.465 0.564-3.217 1.691-0.729 1.105-1.094 2.907-1.094 5.405 0 2.144 0.409 3.79 1.227 4.94 0.818 1.149 2.089 1.724 3.813 1.724 1.017 0 1.857-0.188 2.52-0.564 0.664-0.397 1.271-0.962 1.824-1.691l0.531 0.397c-0.553 1.326-1.404 2.343-2.554 3.050-1.127 0.685-2.475 1.028-4.044 1.028zM42.254 23.277v-0.697l0.697-0.199c0.442-0.132 0.729-0.331 0.862-0.597 0.132-0.265 0.199-0.619 0.199-1.061v-16.777c0-0.465-0.077-0.819-0.232-1.061-0.133-0.265-0.42-0.465-0.862-0.598l-0.664-0.231v-0.697h8.058v0.697l-0.697 0.231c-0.42 0.11-0.696 0.299-0.829 0.564-0.132 0.265-0.199 0.63-0.199 1.094v16.811c0 0.442 0.077 0.796 0.232 1.061 0.155 0.244 0.443 0.431 0.863 0.564l0.63 0.199v0.696h-8.058zM54.325 23.277v-0.697l0.397-0.099c0.42-0.11 0.641-0.32 0.663-0.63 0.023-0.31-0.121-0.664-0.43-1.062l-6.333-8.787 8.090-8.223c0.332-0.331 0.509-0.63 0.531-0.895 0.044-0.288-0.155-0.509-0.597-0.664l-0.564-0.165v-0.697h5.239v0.697l-0.862 0.231c-0.508 0.155-0.918 0.343-1.227 0.564-0.31 0.199-0.663 0.509-1.060 0.929l-5.902 6.002 7.593 10.843c0.354 0.485 0.685 0.873 0.995 1.16 0.33 0.287 0.773 0.509 1.325 0.664l0.465 0.132v0.696h-8.323zM67.534 5.039c-0.73 0-1.348-0.232-1.857-0.697-0.508-0.465-0.763-1.050-0.763-1.758 0-0.729 0.255-1.315 0.764-1.757 0.508-0.465 1.126-0.697 1.856-0.697s1.348 0.232 1.857 0.697c0.508 0.442 0.763 1.028 0.763 1.758 0 0.707-0.255 1.292-0.764 1.757-0.508 0.465-1.126 0.697-1.856 0.697zM63.721 23.275v-0.63l0.498-0.132c0.442-0.133 0.74-0.332 0.895-0.597 0.155-0.266 0.244-0.619 0.265-1.061v-7.992c0-0.597-0.010-1.205-0.033-1.823 0-0.443-0.089-0.785-0.265-1.028-0.155-0.265-0.453-0.442-0.895-0.531l-0.465-0.1v-0.597l5.802-1.923 0.398 0.365-0.1 4.707v8.954c0 0.442 0.077 0.795 0.232 1.061 0.178 0.265 0.475 0.465 0.896 0.597l0.364 0.099v0.63h-7.593zM72.788 23.275v-0.63l0.531-0.132c0.729-0.221 1.094-0.764 1.094-1.625v-9.782c-0.023-0.465-0.1-0.818-0.232-1.061-0.133-0.265-0.42-0.442-0.862-0.531l-0.531-0.133v-0.597l5.371-1.923 0.398 0.365 0.232 2.055c0.762-0.68 1.636-1.257 2.588-1.697l0.065-0.027c0.994-0.465 1.966-0.697 2.917-0.697 1.459 0 2.575 0.398 3.349 1.194 0.796 0.795 1.194 2.011 1.194 3.647v9.218c0 0.862 0.397 1.404 1.193 1.625l0.364 0.099v0.63h-7.626v-0.63l0.498-0.132c0.73-0.244 1.094-0.785 1.094-1.625v-9.848c0-0.774-0.165-1.338-0.497-1.692-0.332-0.353-0.885-0.531-1.659-0.531-1.083 0-2.21 0.475-3.382 1.427v10.677c0 0.862 0.387 1.404 1.16 1.625l0.332 0.099v0.63h-7.593zM91.894 23.275v-0.63l0.498-0.132c0.729-0.244 1.094-0.796 1.094-1.658v-2.254c0.022-0.774 0.033-1.536 0.033-2.287v-12.6c0-0.465-0.077-0.807-0.232-1.028-0.155-0.244-0.454-0.42-0.895-0.531l-0.498-0.133v-0.63l5.803-1.393 0.431 0.299-0.133 4.674v15.883c0.023 0.442 0.11 0.806 0.265 1.094 0.178 0.265 0.475 0.453 0.896 0.564l0.465 0.132v0.63h-7.726zM109.41 6.862c1.393 0 2.586 0.288 3.581 0.862 0.98 0.566 1.761 1.379 2.272 2.356l0.015 0.032c0.552 0.995 0.829 2.144 0.829 3.448 0 0.289-0.011 0.565-0.033 0.83-0.022 0.243-0.066 0.475-0.132 0.696h-9.981c0.022 2.277 0.442 3.912 1.259 4.907 0.84 0.995 2.056 1.493 3.648 1.493 1.106 0 2.001-0.177 2.686-0.531 0.685-0.376 1.315-0.895 1.89-1.559l0.531 0.498c-0.664 1.216-1.57 2.167-2.719 2.852-1.128 0.663-2.476 0.994-4.045 0.994-1.57 0-2.951-0.331-4.145-0.994-1.194-0.664-2.134-1.614-2.818-2.852-0.664-1.259-0.995-2.763-0.995-4.509 0-1.813 0.387-3.35 1.16-4.609 0.796-1.26 1.813-2.222 3.050-2.885 1.26-0.685 2.575-1.028 3.946-1.028zM109.244 7.825c-0.641 0-1.205 0.188-1.691 0.564-0.465 0.353-0.84 0.994-1.127 1.923-0.265 0.906-0.42 2.188-0.465 3.846h5.935c0.243-2.233 0.155-3.846-0.265-4.841-0.42-0.994-1.216-1.492-2.388-1.492zM120.552 31.267c-0.885 0-1.58-0.211-2.089-0.63-0.508-0.42-0.763-0.973-0.763-1.659 0-0.619 0.211-1.116 0.631-1.492 0.392-0.329 0.902-0.53 1.458-0.531h0c0.553 0 1.006 0.099 1.359 0.299 0.354 0.198 0.664 0.485 0.929 0.861l0.198 0.265c0.509 0.619 0.984 0.609 1.427-0.033 0.302-0.403 0.579-0.86 0.808-1.344l0.021-0.049c0.287-0.552 0.597-1.282 0.928-2.188l-6.3-15.053c-0.155-0.42-0.331-0.741-0.531-0.962-0.199-0.243-0.498-0.442-0.895-0.597l-0.564-0.199v-0.597h8.19v0.597l-0.697 0.199c-0.486 0.155-0.751 0.397-0.796 0.73-0.022 0.31 0.056 0.718 0.232 1.226l3.382 8.82 3.25-8.886c0.178-0.486 0.244-0.895 0.199-1.227-0.044-0.33-0.32-0.552-0.829-0.663l-0.73-0.199v-0.597h4.941v0.597l-0.73 0.232c-0.486 0.133-0.84 0.331-1.061 0.597-0.199 0.244-0.387 0.609-0.564 1.094l-5.306 14.259c-0.884 2.431-1.79 4.222-2.719 5.371-0.906 1.172-2.034 1.758-3.382 1.758z"></path>
    </symbol>
  </defs>
</svg>
